<svg xmlns="http://www.w3.org/2000/svg" viewBox="0 0 64 64" role="img" aria-label="Emergency vehicle">
  <rect x="3" y="3" width="58" height="58" rx="18" fill="#8b5cf6"/>
  <rect x="4" y="4" width="56" height="56" rx="17" fill="none" stroke="#a78bfa" stroke-width="2"/>
  <path d="M14 37V26c0-2.2 1.8-4 4-4h24c2.2 0 4 1.8 4 4v11h3v8H11v-8h3Z" fill="#fafafa"/>
  <path d="M21 22v-4c0-1.7 1.3-3 3-3h12c1.7 0 3 1.3 3 3v4" fill="#fafafa"/>
  <path d="M20 29h20" stroke="#8b5cf6" stroke-width="3" stroke-linecap="round"/>
  <path d="M32 24v10M27 29h10" stroke="#ef4444" stroke-width="3" stroke-linecap="round"/>
  <circle cx="21" cy="45" r="4" fill="#111113"/><circle cx="43" cy="45" r="4" fill="#111113"/>
  <path d="M25 15h14" stroke="#ef4444" stroke-width="3" stroke-linecap="round"/>
</svg>
